<?xml version="1.0" encoding="utf-8"?>
<!-- Generator: Adobe Illustrator 24.0.0, SVG Export Plug-In . SVG Version: 6.00 Build 0)  -->
<svg version="1.1" id="Layer_1" xmlns="http://www.w3.org/2000/svg" xmlns:xlink="http://www.w3.org/1999/xlink" x="0px" y="0px"
	 viewBox="0 0 337 79" style="enable-background:new 0 0 337 79;" xml:space="preserve">
<g>
	<path d="M27.07,57.88c-7.22,0-13.1-2.35-17.65-7.05C4.87,46.13,2.6,40.01,2.6,32.46c0-7.97,2.31-14.41,6.93-19.34
		c4.62-4.92,10.73-7.38,18.35-7.38c7.19,0,13.01,2.36,17.46,7.07C49.78,17.52,52,23.73,52,31.44c0,7.92-2.3,14.31-6.91,19.16
		S34.48,57.88,27.07,57.88z M27.56,15.52c-3.98,0-7.15,1.49-9.49,4.48c-2.34,2.99-3.52,6.94-3.52,11.87c0,4.99,1.17,8.94,3.52,11.85
		c2.34,2.91,5.41,4.36,9.21,4.36c3.91,0,7.02-1.41,9.32-4.24c2.3-2.82,3.45-6.74,3.45-11.76c0-5.23-1.11-9.29-3.34-12.2
		C34.48,16.97,31.43,15.52,27.56,15.52z"/>
	<path d="M94.04,57H82.97V37c0-5.58-1.99-8.37-5.98-8.37c-1.92,0-3.5,0.74-4.75,2.21c-1.24,1.48-1.86,3.35-1.86,5.63V57H59.27V21
		h11.11v5.7h0.14c2.65-4.38,6.5-6.57,11.57-6.57c7.97,0,11.95,4.95,11.95,14.84V57z"/>
	<polygon points="133.07,15.83 115.28,15.83 115.28,28.21 131.63,28.21 131.63,37.42 115.28,37.42 115.28,57 103.92,57 103.92,6.59 
		133.07,6.59 	"/>
	<rect x="140.27" y="3.7" width="11.11" height="53.3"/>
	<path d="M166.36,15.3c-1.88,0-3.41-0.56-4.61-1.67c-1.2-1.11-1.79-2.48-1.79-4.1c0-1.66,0.6-3.02,1.79-4.08s2.73-1.58,4.61-1.58
		c1.9,0,3.44,0.53,4.62,1.58c1.18,1.05,1.78,2.41,1.78,4.08c0,1.69-0.59,3.07-1.78,4.15C169.8,14.77,168.26,15.3,166.36,15.3z
		 M171.84,57h-11.11V21h11.11V57z"/>
	<path d="M192.45,52.82h-0.14v20.74H181.2V21h11.11v5.41h0.14c2.74-4.2,6.6-6.29,11.57-6.29c4.66,0,8.27,1.6,10.81,4.8
		c2.54,3.2,3.81,7.55,3.81,13.06c0,6-1.48,10.82-4.45,14.45c-2.97,3.63-6.91,5.45-11.83,5.45
		C198.02,57.88,194.72,56.19,192.45,52.82z M192.13,38.05v2.88c0,2.48,0.66,4.51,1.97,6.08c1.31,1.57,3.04,2.36,5.17,2.36
		c2.53,0,4.49-0.98,5.89-2.94c1.39-1.96,2.09-4.73,2.09-8.31c0-6.33-2.46-9.49-7.38-9.49c-2.27,0-4.13,0.86-5.57,2.58
		S192.13,35.22,192.13,38.05z"/>
	<path d="M237.09,52.82h-0.14v20.74h-11.11V21h11.11v5.41h0.14c2.74-4.2,6.6-6.29,11.57-6.29c4.66,0,8.27,1.6,10.81,4.8
		c2.54,3.2,3.81,7.55,3.81,13.06c0,6-1.48,10.82-4.45,14.45c-2.97,3.63-6.91,5.45-11.83,5.45
		C242.67,57.88,239.37,56.19,237.09,52.82z M236.78,38.05v2.88c0,2.48,0.66,4.51,1.97,6.08c1.31,1.57,3.04,2.36,5.17,2.36
		c2.53,0,4.49-0.98,5.89-2.94c1.39-1.96,2.09-4.73,2.09-8.31c0-6.33-2.46-9.49-7.38-9.49c-2.27,0-4.13,0.86-5.57,2.58
		S236.78,35.22,236.78,38.05z"/>
	<path d="M302.84,42.16h-23.48c0.37,5.23,3.67,7.84,9.88,7.84c3.96,0,7.44-0.94,10.44-2.81v8.02c-3.33,1.78-7.65,2.67-12.97,2.67
		c-5.81,0-10.32-1.61-13.54-4.83c-3.21-3.22-4.82-7.72-4.82-13.48c0-5.98,1.73-10.71,5.2-14.2c3.47-3.49,7.73-5.24,12.8-5.24
		c5.25,0,9.31,1.56,12.18,4.68c2.87,3.12,4.31,7.35,4.31,12.69V42.16z M292.54,35.34c0-5.16-2.09-7.73-6.26-7.73
		c-1.78,0-3.32,0.74-4.62,2.21s-2.09,3.32-2.37,5.52H292.54z"/>
	<path d="M332.93,31.02c-1.34-0.73-2.89-1.09-4.68-1.09c-2.41,0-4.3,0.88-5.66,2.65c-1.36,1.77-2.04,4.18-2.04,7.22V57h-11.11V21
		h11.11v6.68h0.14c1.76-4.87,4.92-7.31,9.49-7.31c1.17,0,2.09,0.14,2.74,0.42V31.02z"/>
</g>
</svg>
